<?xml version="1.0" encoding="UTF-8"?>
<svg id="Layer_1" xmlns="http://www.w3.org/2000/svg" version="1.1" viewBox="0 0 84 84">
  <!-- Generator: Adobe Illustrator 29.7.1, SVG Export Plug-In . SVG Version: 2.1.1 Build 8)  -->
  <defs>
    <style>
      .st0 {
        fill: #f4f4f4;
      }

      .st1 {
        fill: #af2020;
      }
    </style>
  </defs>
  <circle class="st1" cx="42" cy="42" r="42"/>
  <path class="st0" d="M42.75,69.38c-12.75,0-22.35-6.53-23.55-18.6h6.68c1.28,8.17,7.8,12.9,16.2,12.9,6.75,0,11.55-2.47,11.55-7.5,0-5.55-5.48-7.27-13.5-9.38-9-2.55-19.57-5.62-19.57-16.57s10.42-15.6,20.92-15.6c11.7,0,21.22,6.08,22.35,18.15h-6.9c-1.28-7.8-6.9-12.37-14.93-12.37-5.48,0-10.72,2.33-10.72,7.28,0,5.4,5.93,6.97,13.35,9,9.98,2.7,20.18,5.78,20.18,16.88,0,10.5-9.67,15.83-22.05,15.83Z"/>
</svg>