<?xml version="1.0" encoding="UTF-8"?>
<svg id="Layer_1" xmlns="http://www.w3.org/2000/svg" version="1.1" viewBox="0 0 822.42 113.25">
  <!-- Generator: Adobe Illustrator 29.7.1, SVG Export Plug-In . SVG Version: 2.1.1 Build 8)  -->
  <defs>
    <style>
      .st0 {
        fill: #f4f4f4;
      }
    </style>
  </defs>
  <path class="st0" d="M549.74,111.75V6.75h24v91.95h48.75v13.05h-72.75ZM648.05,28.2l-12-28.2h25.5l-12,28.2h-1.5ZM638.3,111.75V36.75h20.85v75h-20.85ZM690.16,111.75V47.55h-13.8v-10.8h13.8v-7.05c0-18.15,11.55-28.95,29.85-28.95,16.2,0,27.45,9.15,27.45,23.4h-11.25v-.6c-.15-7.65-6.9-12.75-15.6-12.75-7.95,0-14.85,4.05-14.85,13.35,0,4.65,1.8,7.65,3.15,12.6h28.95v10.8h-27.9c.6,1.95,1.05,4.5,1.05,8.1v56.1h-20.85ZM782.37,113.25c-23.7,0-40.5-15.9-40.5-38.7s17.25-39.3,40.8-39.3,39.45,16.05,39.75,38.85c0,1.2,0,2.4-.3,3.6h-59.4c1.2,15.75,9.75,24.9,22.65,24.9,10.05,0,18-5.25,21.3-13.65h12c-3.15,13.65-16.5,24.3-36.3,24.3ZM801.72,70.5c-.9-16.65-8.55-25.8-19.5-25.8s-18.6,9.9-19.5,24.75v1.05h39Z"/>
  <path class="st0" d="M47.1,113.25c-25.5,0-44.7-13.05-47.1-37.2h13.35c2.55,16.35,15.6,25.8,32.4,25.8,13.5,0,23.1-4.95,23.1-15,0-11.1-10.95-14.55-27-18.75C23.85,63,2.7,56.85,2.7,34.95S23.55,3.75,44.55,3.75c23.4,0,42.45,12.15,44.7,36.3h-13.8c-2.55-15.6-13.8-24.75-29.85-24.75-10.95,0-21.45,4.65-21.45,14.55,0,10.8,11.85,13.95,26.7,18,19.95,5.4,40.35,11.55,40.35,33.75,0,21-19.35,31.65-44.1,31.65ZM141.44,112.5c-18.3,0-27.3-8.55-27.3-25.05v-40.65h-15.75v-10.8h11.55c3.45,0,5.4-1.95,5.4-5.55v-12.45h19.8l-.15,18h26.55v10.8h-26.55v39.6c0,9.75,4.2,14.4,13.35,14.4,3.75,0,8.4-.9,13.2-2.1v10.8c-5.25,1.95-14.25,3-20.1,3ZM211.37,112.5c-24.15,0-41.7-16.5-41.7-39s17.55-39,41.7-39,41.55,16.35,41.55,39-17.4,39-41.55,39ZM211.37,101.55c12,0,20.25-10.5,20.25-28.05s-8.25-28.2-20.25-28.2-20.25,10.5-20.25,28.2,8.1,28.05,20.25,28.05ZM271.33,111V4.5h20.85v106.5h-20.85ZM351.09,112.5c-23.7,0-40.5-15.9-40.5-38.7s17.25-39.3,40.8-39.3,39.45,16.05,39.75,38.85c0,1.2,0,2.4-.3,3.6h-59.4c1.2,15.75,9.75,24.9,22.65,24.9,10.05,0,18-5.25,21.3-13.65h12c-3.15,13.65-16.5,24.3-36.3,24.3ZM370.44,69.75c-.9-16.65-8.55-25.8-19.5-25.8s-18.6,9.9-19.5,24.75v1.05h39ZM407.86,111V36h19.95v13.2c4.8-9.3,13.5-14.7,24.75-14.7,19.35,0,31.2,12.9,31.2,34.35v42.15h-21v-40.5c0-15.3-6.15-23.7-16.35-23.7s-17.7,10.35-17.7,24.3v39.9h-20.85Z"/>
</svg>