<svg style="display:none !important;" xmlns="http://www.w3.org/2000/svg">

    <symbol id="device-desktop" viewBox="0 0 44 40">
        <g fill="currentColor">
            <path d="m40 0h-36c-2.2 0-4 1.8-4 4v24c0 2.2 1.8 4 4 4h14v4h-4v4h16v-4h-4v-4h14c2.2 0 4-1.8 4-4v-24c0-2.2-1.8-4-4-4zm0 28h-36v-24h36z"/>
        </g>
    </symbol>

    <symbol id="device-mobile" viewBox="0 0 26 44">
        <g fill="currentColor">
            <path d="m21 0h-16c-2.8 0-5 2.2-5 5v34c0 2.8 2.2 5 5 5h16c2.8 0 5-2.2 5-5v-34c0-2.8-2.2-5-5-5zm-8 42c-1.7 0-3-1.3-3-3s1.3-3 3-3 3 1.3 3 3-1.3 3-3 3zm9-8h-18v-28h18z"/>
        </g>
    </symbol>

</svg>
